<mxfile host="app.diagrams.net" agent="Mozilla/5.0 (Macintosh; Intel Mac OS X 10_15_7) AppleWebKit/537.36 (KHTML, like Gecko) Chrome/135.0.0.0 Safari/537.36" version="27.0.5">
  <diagram name="Page-1" id="eZh_oPTkVawaqGKyRo0A">
    <mxGraphModel dx="1097" dy="594" grid="1" gridSize="10" guides="1" tooltips="1" connect="1" arrows="1" fold="1" page="1" pageScale="1" pageWidth="827" pageHeight="1169" math="0" shadow="0">
      <root>
        <mxCell id="0" />
        <mxCell id="1" parent="0" />
        <mxCell id="YaKLgwEU6TUT1X9330ae-3" style="edgeStyle=orthogonalEdgeStyle;rounded=0;orthogonalLoop=1;jettySize=auto;html=1;entryX=0;entryY=0.5;entryDx=0;entryDy=0;" edge="1" parent="1" source="YaKLgwEU6TUT1X9330ae-1" target="YaKLgwEU6TUT1X9330ae-2">
          <mxGeometry relative="1" as="geometry" />
        </mxCell>
        <mxCell id="YaKLgwEU6TUT1X9330ae-1" value="&lt;b&gt;&lt;font style=&quot;font-size: 15px;&quot;&gt;Kod źródłowy&lt;/font&gt;&lt;/b&gt;&lt;div&gt;&lt;b&gt;&lt;font style=&quot;font-size: 15px;&quot;&gt;(w tym zewnętrzne zależności)&lt;/font&gt;&lt;/b&gt;&lt;/div&gt;" style="rounded=0;whiteSpace=wrap;html=1;fillColor=#f5f5f5;strokeColor=#666666;fontColor=#333333;" vertex="1" parent="1">
          <mxGeometry x="80" y="300" width="120" height="80" as="geometry" />
        </mxCell>
        <mxCell id="YaKLgwEU6TUT1X9330ae-15" style="edgeStyle=orthogonalEdgeStyle;rounded=0;orthogonalLoop=1;jettySize=auto;html=1;entryX=0;entryY=0.5;entryDx=0;entryDy=0;" edge="1" parent="1" source="YaKLgwEU6TUT1X9330ae-2" target="YaKLgwEU6TUT1X9330ae-14">
          <mxGeometry relative="1" as="geometry" />
        </mxCell>
        <mxCell id="YaKLgwEU6TUT1X9330ae-2" value="" style="rounded=1;whiteSpace=wrap;html=1;" vertex="1" parent="1">
          <mxGeometry x="280" y="240" width="200" height="200" as="geometry" />
        </mxCell>
        <mxCell id="YaKLgwEU6TUT1X9330ae-7" style="edgeStyle=orthogonalEdgeStyle;rounded=0;orthogonalLoop=1;jettySize=auto;html=1;" edge="1" parent="1" source="YaKLgwEU6TUT1X9330ae-4" target="YaKLgwEU6TUT1X9330ae-5">
          <mxGeometry relative="1" as="geometry">
            <Array as="points">
              <mxPoint x="320" y="350" />
              <mxPoint x="320" y="350" />
            </Array>
          </mxGeometry>
        </mxCell>
        <mxCell id="YaKLgwEU6TUT1X9330ae-4" value="Analiza statyczna kodu" style="rounded=0;whiteSpace=wrap;html=1;fillColor=#dae8fc;strokeColor=#A8B9BF;" vertex="1" parent="1">
          <mxGeometry x="290" y="260" width="116" height="30" as="geometry" />
        </mxCell>
        <mxCell id="YaKLgwEU6TUT1X9330ae-5" value="Utrwalenie stanu sterty" style="rounded=0;whiteSpace=wrap;html=1;fillColor=#dae8fc;strokeColor=#A8B9BF;" vertex="1" parent="1">
          <mxGeometry x="290" y="390" width="116" height="30" as="geometry" />
        </mxCell>
        <mxCell id="YaKLgwEU6TUT1X9330ae-8" style="edgeStyle=orthogonalEdgeStyle;rounded=0;orthogonalLoop=1;jettySize=auto;html=1;entryX=0.629;entryY=1.033;entryDx=0;entryDy=0;entryPerimeter=0;" edge="1" parent="1" source="YaKLgwEU6TUT1X9330ae-5" target="YaKLgwEU6TUT1X9330ae-6">
          <mxGeometry relative="1" as="geometry">
            <Array as="points">
              <mxPoint x="429" y="405" />
            </Array>
          </mxGeometry>
        </mxCell>
        <mxCell id="YaKLgwEU6TUT1X9330ae-9" style="edgeStyle=orthogonalEdgeStyle;rounded=0;orthogonalLoop=1;jettySize=auto;html=1;entryX=1;entryY=0.5;entryDx=0;entryDy=0;" edge="1" parent="1" source="YaKLgwEU6TUT1X9330ae-6" target="YaKLgwEU6TUT1X9330ae-4">
          <mxGeometry relative="1" as="geometry">
            <Array as="points">
              <mxPoint x="430" y="275" />
            </Array>
          </mxGeometry>
        </mxCell>
        <mxCell id="YaKLgwEU6TUT1X9330ae-6" value="Inicjalizacja klas" style="rounded=0;whiteSpace=wrap;html=1;fillColor=#dae8fc;strokeColor=#A8B9BF;" vertex="1" parent="1">
          <mxGeometry x="356" y="325" width="116" height="30" as="geometry" />
        </mxCell>
        <mxCell id="YaKLgwEU6TUT1X9330ae-14" value="&lt;b&gt;&lt;font style=&quot;font-size: 15px;&quot;&gt;Obraz natywny&lt;/font&gt;&lt;/b&gt;" style="rounded=0;whiteSpace=wrap;html=1;fillColor=#f5f5f5;strokeColor=#666666;fontColor=#333333;" vertex="1" parent="1">
          <mxGeometry x="560" y="300" width="120" height="80" as="geometry" />
        </mxCell>
        <mxCell id="YaKLgwEU6TUT1X9330ae-16" value="" style="shape=curlyBracket;whiteSpace=wrap;html=1;rounded=1;labelPosition=left;verticalLabelPosition=middle;align=right;verticalAlign=middle;rotation=90;strokeWidth=3;" vertex="1" parent="1">
          <mxGeometry x="371.88" y="85.63" width="20" height="248.75" as="geometry" />
        </mxCell>
        <mxCell id="YaKLgwEU6TUT1X9330ae-18" value="&lt;font style=&quot;font-size: 18px;&quot;&gt;Proces budowy obrazu natywnego&lt;/font&gt;" style="text;html=1;align=center;verticalAlign=middle;resizable=0;points=[];autosize=1;strokeColor=none;fillColor=none;" vertex="1" parent="1">
          <mxGeometry x="230" y="153" width="300" height="40" as="geometry" />
        </mxCell>
      </root>
    </mxGraphModel>
  </diagram>
</mxfile>
